<svg width="1503" height="408" viewBox="0 0 1503 408" fill="none" xmlns="http://www.w3.org/2000/svg">
<path d="M323.963 252.789C322.812 244.132 322.649 229.22 330.691 224.213C330.834 224.121 330.941 223.989 331.067 223.875C337.641 221.772 342.191 218.821 338.62 214.85L241.639 185.629L84.6056 207.461C84.6056 207.461 66.6233 210.032 68.2297 237.969C69.1017 253.175 73.8708 260.643 78.0415 264.318L65.1554 268.201C61.5789 272.172 66.1278 275.124 72.703 277.223C72.8279 277.341 72.9333 277.472 73.0795 277.564C81.1157 282.575 80.961 297.485 79.8051 306.145C50.935 314.342 61.2984 317.014 61.2984 317.014L67.6313 318.546C63.1768 322.571 58.7528 330.205 59.5815 344.682C61.1887 372.615 75.9591 374.542 75.9591 374.542L178.721 407.943L333.828 370.374C333.828 370.374 344.195 367.698 315.317 359.5C314.156 350.854 313.994 335.946 322.049 330.922C322.197 330.833 322.305 330.698 322.425 330.586C329 328.483 333.546 325.534 329.973 321.563L323.231 319.528C327.728 316.816 334.481 309.73 335.54 291.324C336.27 278.663 332.967 271.248 329.144 266.883L342.469 263.658C342.47 263.663 352.837 260.988 323.963 252.789ZM194.226 252.431L220.309 247.071L308.455 228.957L321.588 226.255C317.391 233.936 317.567 244.446 318.262 251.201C318.414 252.73 318.589 254.125 318.759 255.186L304.385 258.76L193.129 286.437L194.226 252.431ZM82.1833 279.615L95.3141 282.316L179.966 299.718L187.362 301.233L209.539 305.791L210.633 339.797L96.2864 311.349L85.0136 308.547C85.1793 307.485 85.3544 306.091 85.5134 304.559C86.2035 297.808 86.3829 287.295 82.1833 279.615ZM77.0819 236.625C76.923 229.194 78.2472 223.82 80.9237 221.088C82.6269 219.344 84.6371 218.981 86.0157 218.981C86.7441 218.981 87.2685 219.082 87.3042 219.082L154.966 241.141L188.723 252.147L187.616 286.39L92.913 259.839L87.9153 258.44C87.7317 258.388 87.4827 258.352 87.2906 258.344C86.9005 258.315 77.5375 257.454 77.0819 236.625ZM178.966 393.108L79.268 365.156C79.0835 365.103 78.837 365.067 78.6449 365.058C78.248 365.031 68.8808 364.17 68.4277 343.347C68.2662 335.906 69.5973 330.537 72.2686 327.803C73.9762 326.059 75.9872 325.696 77.3632 325.696C78.0933 325.696 78.616 325.794 78.6543 325.794C78.6543 325.794 78.6585 325.794 78.6543 325.794L180.066 358.863L178.966 393.108ZM309.607 357.914C309.764 359.447 309.939 360.84 310.109 361.903L184.477 393.156L185.575 359.15L212.434 353.628L216.401 354.587L231.268 349.755L299.8 335.672L312.938 332.97C308.737 340.649 308.912 351.164 309.607 357.914ZM316.527 311.698C316.298 311.703 316.07 311.734 315.855 311.802L306.38 314.454L216.159 339.752L215.056 305.509L244.656 295.854L316.33 272.48C316.339 272.476 320.1 271.64 322.861 274.447C325.533 277.179 326.859 282.553 326.703 289.984C326.235 310.806 316.868 311.672 316.527 311.698Z" fill="#B46E21"/>
<path d="M202.1 157.529L81.5237 120.417V156.929V182.4C81.5237 211.054 135.525 234.286 202.136 234.286C268.743 234.286 322.754 211.054 322.754 182.4C322.754 182.174 322.68 181.947 322.675 181.727V120.417L202.1 157.529Z" fill="#B46E21"/>
<path d="M0 77.7517L43.0756 93.1605L46.7464 85.2986L62.5712 83.9535L64.8275 86.3012L51.2483 89.5213L49.2692 95.379C49.2656 95.379 18.5962 159.497 23.1006 190.864C23.1006 190.864 42.2445 202.283 61.3802 190.864L66.4656 105.104V97.9651L94.9502 91.5392L92.9384 96.4934L71.7005 103.4L81.5231 106.909L202.099 144.02L322.674 106.909L404.197 77.7522L202.099 0L0 77.7517Z" fill="#B46E21"/>
<path d="M527.552 317L483.2 238.664H464.192V317H423.872V115.976H499.328C514.88 115.976 528.128 118.76 539.072 124.328C550.016 129.704 558.176 137.096 563.552 146.504C569.12 155.72 571.904 166.088 571.904 177.608C571.904 190.856 568.064 202.856 560.384 213.608C552.704 224.168 541.28 231.464 526.112 235.496L574.208 317H527.552ZM464.192 208.424H497.888C508.832 208.424 516.992 205.832 522.368 200.648C527.744 195.272 530.432 187.88 530.432 178.472C530.432 169.256 527.744 162.152 522.368 157.16C516.992 151.976 508.832 149.384 497.888 149.384H464.192V208.424Z" fill="#E5E5E5"/>
<path d="M679.22 319.592C663.86 319.592 650.036 316.232 637.748 309.512C625.46 302.6 615.764 292.904 608.66 280.424C601.748 267.944 598.292 253.544 598.292 237.224C598.292 220.904 601.844 206.504 608.948 194.024C616.244 181.544 626.132 171.944 638.612 165.224C651.092 158.312 665.012 154.856 680.372 154.856C695.732 154.856 709.652 158.312 722.132 165.224C734.612 171.944 744.404 181.544 751.508 194.024C758.804 206.504 762.452 220.904 762.452 237.224C762.452 253.544 758.708 267.944 751.22 280.424C743.924 292.904 733.94 302.6 721.268 309.512C708.788 316.232 694.772 319.592 679.22 319.592ZM679.22 284.456C686.516 284.456 693.332 282.728 699.668 279.272C706.196 275.624 711.38 270.248 715.22 263.144C719.06 256.04 720.98 247.4 720.98 237.224C720.98 222.056 716.948 210.44 708.884 202.376C701.012 194.12 691.316 189.992 679.796 189.992C668.276 189.992 658.58 194.12 650.708 202.376C643.028 210.44 639.188 222.056 639.188 237.224C639.188 252.392 642.932 264.104 650.42 272.36C658.1 280.424 667.7 284.456 679.22 284.456Z" fill="#E5E5E5"/>
<path d="M880.156 317L847.324 267.464L818.236 317H775.036L827.164 236.936L774.46 157.448H819.964L852.508 206.696L881.884 157.448H925.084L872.668 236.936L925.66 317H880.156Z" fill="#E5E5E5"/>
<path d="M1020.71 190.568H992.776V317H951.88V190.568H933.736V157.448H951.88V149.384C951.88 129.8 957.448 115.4 968.584 106.184C979.72 96.9677 996.52 92.6477 1018.98 93.2237V127.208C1009.19 127.016 1002.38 128.648 998.536 132.104C994.696 135.56 992.776 141.8 992.776 150.824V157.448H1020.71V190.568Z" fill="#E5E5E5"/>
<path d="M1117.69 319.592C1102.33 319.592 1088.5 316.232 1076.22 309.512C1063.93 302.6 1054.23 292.904 1047.13 280.424C1040.22 267.944 1036.76 253.544 1036.76 237.224C1036.76 220.904 1040.31 206.504 1047.42 194.024C1054.71 181.544 1064.6 171.944 1077.08 165.224C1089.56 158.312 1103.48 154.856 1118.84 154.856C1134.2 154.856 1148.12 158.312 1160.6 165.224C1173.08 171.944 1182.87 181.544 1189.98 194.024C1197.27 206.504 1200.92 220.904 1200.92 237.224C1200.92 253.544 1197.18 267.944 1189.69 280.424C1182.39 292.904 1172.41 302.6 1159.74 309.512C1147.26 316.232 1133.24 319.592 1117.69 319.592ZM1117.69 284.456C1124.98 284.456 1131.8 282.728 1138.14 279.272C1144.66 275.624 1149.85 270.248 1153.69 263.144C1157.53 256.04 1159.45 247.4 1159.45 237.224C1159.45 222.056 1155.42 210.44 1147.35 202.376C1139.48 194.12 1129.78 189.992 1118.26 189.992C1106.74 189.992 1097.05 194.12 1089.18 202.376C1081.5 210.44 1077.66 222.056 1077.66 237.224C1077.66 252.392 1081.4 264.104 1088.89 272.36C1096.57 280.424 1106.17 284.456 1117.69 284.456Z" fill="#E5E5E5"/>
<path d="M1270.82 182.216C1276 173.768 1282.72 167.144 1290.98 162.344C1299.43 157.544 1309.03 155.144 1319.78 155.144V197.48H1309.12C1296.45 197.48 1286.85 200.456 1280.32 206.408C1273.99 212.36 1270.82 222.728 1270.82 237.512V317H1230.5V157.448H1270.82V182.216Z" fill="#E5E5E5"/>
<path d="M1336.57 236.648C1336.57 220.52 1339.73 206.216 1346.07 193.736C1352.6 181.256 1361.43 171.656 1372.57 164.936C1383.7 158.216 1396.09 154.856 1409.72 154.856C1420.09 154.856 1429.97 157.16 1439.38 161.768C1448.79 166.184 1456.28 172.136 1461.85 179.624V103.88H1502.74V317H1461.85V293.384C1456.85 301.256 1449.85 307.592 1440.82 312.392C1431.8 317.192 1421.33 319.592 1409.43 319.592C1395.99 319.592 1383.7 316.136 1372.57 309.224C1361.43 302.312 1352.6 292.616 1346.07 280.136C1339.73 267.464 1336.57 252.968 1336.57 236.648ZM1462.13 237.224C1462.13 227.432 1460.21 219.08 1456.37 212.168C1452.53 205.064 1447.35 199.688 1440.82 196.04C1434.29 192.2 1427.29 190.28 1419.8 190.28C1412.31 190.28 1405.4 192.104 1399.06 195.752C1392.73 199.4 1387.54 204.776 1383.51 211.88C1379.67 218.792 1377.75 227.048 1377.75 236.648C1377.75 246.248 1379.67 254.696 1383.51 261.992C1387.54 269.096 1392.73 274.568 1399.06 278.408C1405.59 282.248 1412.5 284.168 1419.8 284.168C1427.29 284.168 1434.29 282.344 1440.82 278.696C1447.35 274.856 1452.53 269.48 1456.37 262.568C1460.21 255.464 1462.13 247.016 1462.13 237.224Z" fill="#E5E5E5"/>
</svg>
